<svg width="339" height="181" xmlns="http://www.w3.org/2000/svg"><path fill-rule="evenodd" d="M75.3 0C44 20.4 0 66.7 0 91.1c0 24.5 48 69.3 75.9 89.7-23-21.2-75-67.7-75-89.6C.7 69.2 51 18.8 75.2 0zm97.3 5.5c-40 10-143.2 48.2-163.7 73C40.9 51.3 134 19 172.6 5.4zm166.5 15.8c-117 5.9-203.2 21.1-231.2 27.4-17.6 4-63.2 13.5-87.2 24.8 12.3-5.7 47-13.1 74.1-19.2 55.4-12.6 137.2-24 244.3-33zM52 71a138.1 138.1 0 0 0-30.3 4c-5 1.2-9.5 3-12.6 5a14 14 0 0 0-5.8 7c-1 2.4-1 5-.3 7.4.7 2.5 2.4 4.9 5.2 6.9 2.9 2 7 3.7 11.7 4.9a99.5 99.5 0 0 0 15.8 2.2c5.6.4 11.4.6 16.6.6 5.2 0 9.8-.3 12.7-.7 2.9-.4 4-1 4.8-1.8 1-.8 1.6-1.8 2-4a180.6 180.6 0 0 0 .6-18c-.2-3-.3-5.6-.7-7.4-.4-2-1-3-2.1-3.8-1-.8-2.4-1.3-5.4-1.7-3-.4-7.4-.6-12.1-.6zm-.7 4c3.7 0 7.8.2 12.2.4-42.3.4-50 10.6-56 11.6 1.8-3 7.7-12 43.8-12zm-42 28.9c20.5 24.7 123.7 63 163.7 73-38.5-13.6-131.7-46-163.7-73zm10.9 4.3c24 11.3 69.6 20.9 87.2 24.8 28 6.3 114 21.6 231.1 27.4-107-9-188.8-20.4-244.2-33-27-6-61.8-13.4-74.1-19.2zM124.7 72c.9.1 1.5.4 2 .7.4.3.7.8.8 2.8.2 2 .2 5.5.2 9.5v11.6c0 3.1 0 4.9-.3 6.1-.3 1.2-.7 2-1.2 2.4-.6.5-1.3.7-2.3.7-1 0-2.4 0-3.4-.4-1-.3-1.8-1.3-2.8-2-1-.8-2.2-2.1-4.3-4.3-3.3-3.6-6.6-7.6-9.4-10.7-2.8-3.1-2.9-1.7-2.7 2.5 0 3.8.2 8.9 0 12.7 0 1.2-.2 1.6-.5 1.9-.3.3-.6.5-1.5.7H96c-1-.2-1.7-.5-2-1-.3-.4-.6-1-.7-2.6a774.7 774.7 0 0 1-.2-19.7c0-3.7.2-6.7.4-8.3.3-1.6.7-1.9 1.1-2 .5-.3 1-.4 1.8-.5.9 0 2 0 3 .4 1 .3 1.7.8 2.6 1.8 1 1 2.1 2.4 3.8 4.5l5.8 7a122.2 122.2 0 0 0 6.7 7.6c1.5.8 1.3-.5 1.4-2l-.2-7.8v-8.3c.2-1.8.4-2.2.7-2.6.3-.3.8-.6 1.6-.7h2.8zm37.5 0h-1.3c-.7.2-1.2.4-1.7.8-.5.3-1 .9-2 2.6a249.8 249.8 0 0 0-9.8 17.9 87.3 87.3 0 0 0-3.9 8.3c-.7 1.8-.5 2.5-.4 3 .2.5.5 1 1.7 1.2 1.3.3 3.2.2 4.5.2 1.7 0 2-.7 2.8-2l1.9-4c.5-1.2.7-1.5 1-1.6.4-.2 1.5-.2 2.8-.2h8.7c.9 0 2 .1 2.4.4.4.2.6.6 1.1 1.6l1.8 3.5c.4 1 1 1.5 1.4 1.9.5.3.7.5 2 .5l4-.1c1.1-.1 1.3-.4 1.5-.8.2-.3.3-.8-.3-2.6-.6-1.7-2-4.8-3.7-8.3l-5.3-11a85.2 85.2 0 0 0-4.2-8c-1-1.7-1.4-2.2-2-2.5-.4-.4-1-.6-1.8-.7h-1.2zm0 10.6.4.2c.7.6 3.3 6.2 3.5 7.5.1 1.2 0 1.3-3.5 1.2l-3.6-.1c-1-.3-1.2-.5-1-1.3 0-1.2 3-6.5 3.8-7.3l.5-.2zm.1-17.1c0 .2.2.5.8.6h4.8l1.5-.1c.5 0 1-.2 1.6-.6l2.8-2.1 2.5-2.6c.7-.6.7-1 .5-1.2-.2-.3-.7-.6-1.4-.7l-2.2-.1h-3c-.9 0-1.3.1-1.6.3a9 9 0 0 0-1.7 1.4l-3.6 3.6c-1 1-1 1.2-1 1.5zm43.3 6.3-2.8.1c-2.3.3-5.2.6-5.8 3.2-.4 1.6-.2 4.2-.2 7.6v11.4c0 3.6 0 6.5.2 8.3.4 2.3 1.8 3.6 4.4 3.8a100 100 0 0 0 14.5 0c2.2-.3 3.8-1 5-2.1a11.4 11.4 0 0 0 2.4-8.3 8.4 8.4 0 0 0-1.5-3.8c-.8-1.1-1.8-1.9-2.5-2.4s-1-.8-1-1c0-.3.3-.5.8-1a8.5 8.5 0 0 0 2.3-9.1 8.5 8.5 0 0 0-2.1-3.6c-1-1-2.4-2-4.2-2.4v-.2a30 30 0 0 0-6.2-.5h-3.3zm.9 6.2h1.4c1.6 0 2.8.1 3.3.3a4 4 0 0 1 3 3.7c0 2-1 3.5-2.8 3.9a24.5 24.5 0 0 1-6.3-.2c-.3-.2-.4-.5-.5-2a12 12 0 0 1 .4-5.3c.3-.2.4-.3 1.5-.4zm2.1 14.3h2.4c1.4.1 2.3.3 3 .8a4 4 0 0 1 2 1.9c.3.8.3 1.5 0 2.4a4 4 0 0 1-1.8 2.1c-.7.5-1.7.7-3.1.8h-4.4c-1-.1-1.3-.2-1.5-.5-.3-.2-.4-.6-.5-1.2v-4.3c0-.6.1-1 .3-1.3.1-.3.4-.4 1.5-.5l2.1-.2zm52.7-19.1a15 15 0 0 1 5.9 4.8c1.6 2.2 2.8 4.9 3.3 8 .5 3 .3 6.4-.4 9.2-.8 2.8-2.1 5-3.9 6.8-1.8 1.8-4 3-7 3.7-2.8.6-6.6.6-9.4-.2a13 13 0 0 1-6.4-4 15.1 15.1 0 0 1-3.5-6.5 24 24 0 0 1-.5-8.9c.4-3 1.3-5.7 2.7-7.8a13 13 0 0 1 5.4-4.7c2.1-1 4.6-1.5 7-1.5 2.4-.1 4.7.2 6.8 1.1zm-2.9 6.7c1.2.5 2.2 1.4 3.1 2.7.9 1.2 1.5 2.7 1.8 4.5.3 1.7.1 3.6-.3 5.1a8.6 8.6 0 0 1-2 3.9c-1 1-2 1.7-3.6 2-1.6.4-3.6.4-5 0a7 7 0 0 1-3.5-2.4c-.8-1-1.4-2-1.8-3.6-.4-1.5-.5-3.3-.3-5 .2-1.6.7-3.2 1.5-4.3a7.2 7.2 0 0 1 2.8-2.7 9 9 0 0 1 3.7-.8c1.3 0 2.5 0 3.6.6zm52.4-7.9c1.3.1 1.7.5 2 .9.3.4.6 1 .8 2.8l.2 8.5v8.7a22 22 0 0 1-1.2 6.3c-.8 1.8-2 3.4-3.4 4.6a9.9 9.9 0 0 1-4.4 2.1 18 18 0 0 1-5.3.5c-2 0-3.9-.3-5.8-1.2-1.8-.9-3.6-2.3-4.6-3.9a9 9 0 0 1-1.4-4.3c0-1 .2-1.4.4-1.7.3-.4.6-.6 1.5-.8h3.3c1 .1 1.3.3 1.7.6l.8 1.2c1 1.6 2.4 2.1 4 2.5 2.3 0 4.4-.4 5.7-2.2.6-1.2 1.2-2 1.3-4.3V84c0-2.9-.3-4-2.3-4.3-2-.3-3.1-.1-5.7 0a83 83 0 0 1-7.5-.2c-1.8 0-2.3-.3-2.7-.7-.3-.4-.5-.9-.6-1.8v-2.9c.1-.8.3-1.3.6-1.6.3-.3.7-.5 2.2-.6 1.4-.2 4-.2 6.5-.2h7.6l6.3.1z"/><g aria-label="CHEMISTRY" style="font-size:19.079px;line-height:1.25;stroke-width:.476975"><path d="M188.9 118.05q.05.1.17.26l.15.23q.04.04.11.17l.1.16.08.15.07.17.1.2.1.22.1.29v.11q0 .54-.66.84-.65.3-1.43.3-.86 0-1.01-.32l-.16-.34-.03-.1q-.08-.05-.23-.28-1.03-1.5-2.83-1.5-1.03 0-1.83.4-.95.47-1.47 1.54-.51 1.06-.51 2.34 0 1.45.65 2.62.65 1.16 1.87 1.52 1.08.33 1.92.33.29 0 .56-.06 1.37-.29 1.85-.8l.25-.38q.2-.33.42-.6.22-.26.43-.32.5-.13.92-.13.61 0 1.03.2.42.2.44.56v.08q0 1.31-1.6 2.95-1.8 1.8-4.93 1.8-1.27 0-2.42-.29-2.33-.65-3.55-2.69-1.22-2.06-1.22-4.62 0-2.82 1.34-4.88.91-1.37 2.42-2.1 1.53-.72 3.24-.72 1.7 0 3.19.7 1.5.7 2.37 1.99zM193.11 129.15v-.3l.02-.33q.02-.32.02-1.03l-.02-1.18v-1.59q.02-.47.02-1.62l-.02-2.5-.02-2.38q0-1.83.14-2.04.2-.33.34-.44.13-.14.48-.23.36-.12.97-.12l.25.02h.28q.8.1 1.03.5.23.4.25 1.28.04 1.75.04 3.37v.14q0 .51.15.74.15.23.6.23h.4q.43 0 .72.02 2.33 0 4-.04h.14q.74 0 .74-.9 0-.51-.05-1.77-.04-1.26-.04-1.75 0-.92.11-1.1.25-.35.38-.47.14-.13.44-.2.3-.09.92-.09 1.12 0 1.45.39.34.36.36 1.37.06 2.06.06 2.52 0 .9-.04 1.35-.04.58-.04 1.83l.02 2.5q.04 1.63.04 2.27 0 1.86-.17 2.35-.1.25-.36.46-.25.2-.42.23h-1.74q-.21 0-.5-.23-.26-.25-.38-.55-.13-.37-.13-2.24 0-1.26.02-1.85v-.1q0-.43-.23-.66-.21-.23-.56-.23h-1.48l-1.38-.02-2.32.04q-.75 0-.75.8v.1l.04 2.27q0 1.5-.2 2-.09.25-.37.44-.29.19-.46.2-.38.05-1.85.05l-.1-.02q-.07-.02-.23-.12-.13-.1-.26-.24-.12-.16-.21-.44-.1-.3-.1-.69zM217.44 127.81q2.57 0 3.15.2.57.19.57 1.22 0 .36-.04.53-.06.27-.4.53-.34.27-.82.33-.44.06-2.21.06-3.9 0-5.33-.14-1.64-.11-1.96-1.7-.08-.57-.08-2.38v-6.35l-.02-.92v-.84q0-1.12.12-1.6.03-.2.11-.34.1-.16.21-.27.13-.14.23-.21.11-.1.3-.17l.33-.12q.11-.04.34-.07l.35-.06.38-.04.36-.06h.4l.33-.02q.28 0 .53.02h1.8q3.43 0 3.64.02.3.02.78.2.48.16.6.4.1.24.1.83l-.01.46q-.02.15-.14.38-.11.21-.4.35-.27.11-.72.19-.4.07-3.07.07h-1.57q-.63.04-.88.14-.23.07-.53.4-.15.17-.15.7 0 .56.03.98.06.8.25.93.2.13 1.26.13h.75l1.25-.01q1.15 0 1.57.11.42.1.51.53.1.54.1.94 0 .86-.34 1.07-.33.19-1.5.19h-.96l-.98-.02q-1.58 0-1.73.27-.18.26-.18 1.18 0 .95.21 1.56.3.37.71.4zM236.73 125.56l.02-1.18q.03-.78.03-1.5l-.02-.7v-.7q-1.56 2.63-2.48 3.87-.43.58-.8.8-.34.23-1.12.23-.86 0-1.2-.17-.33-.19-.88-.91l-.36-.5-1.05-1.45q-.67-.97-1.32-1.95-.02.48-.02 1.51l.02 2.37q.04 1.54.04 2.17 0 1.99-.2 2.5-.09.25-.36.44-.24.17-.4.2H224.97l-.17-.14q-.13-.12-.25-.3-.1-.22-.17-.66-.07-.44-.07-1.03l-.02-1.49-.02-1.46v-.44l.02-.38v-.6q.02-.28.02-.66v-2.31q0-2.77-.02-4.71 0-.44.19-.71.19-.27.55-.29h.42l.48-.02.47.02h.44q.46 0 .69.17.25.18.5.56.51.8.68 1.12 1.66 2.96 2.45 4.22.8 1.26 1.1 1.28.15 0 .77-1.03t1.4-2.46q.8-1.45 1.06-1.83.63-1 .72-1.19.42-.8 1.26-.84h.27l.32-.02q.8 0 1.34.08.68.08.68 1.47v.36q.04 1.41.04 2.56 0 .86-.02 1.3-.03 1.14-.03 1.77l.01 2.46q.04 1.58.04 2.23 0 1.85-.17 2.39-.1.25-.36.44-.25.19-.4.2h-.14l-.82-.01-.68-.02-.14-.02q-.05-.02-.19-.13-.13-.12-.23-.3-.1-.22-.17-.62-.07-.42-.07-.97v-.69l-.02-1.2v-1.13zM245.58 115.41q.82.1 1.09.48.26.36.26 1.07v1.17q0 1.88.02 2.9-.04 1.1-.04 1.69 0 .88.04 2.56.04 1.66.04 2.32 0 1.87-.2 2.37-.1.25-.43.44-.3.19-.5.2-.38.05-1.52.05-.25 0-.57-.21-.3-.23-.42-.54-.16-.4-.16-.97v-.8l-.01-1.34-.02-1.43V125l.02-.32q.03-1.07.03-1.9l-.02-2.24-.01-2.14q0-2 .15-2.23.34-.48.6-.61.28-.16.98-.16l.3.02h.37zM262.4 117.7l.37.48.19.3q.15.21.21.37l.23.5v.1q0 .47-.61.71-.61.25-1.38.25-.83 0-1.04-.27-.5-.68-.84-.99-.33-.3-1.02-.59-.93-.36-1.52-.36h-.08q-2.12.07-2.88 1.18-.25.33-.25.82 0 .44.29.67 1 .8 2.9.8h.04q.9 0 1.96.27 1.07.27 2.04.76 1 .48 1.64 1.28.67.78.67 1.7v.1q-.05 1.75-.68 2.51-.67.84-1.28 1.28-.6.44-1.74.74-1.14.3-2.94.35h-.34q-1.45 0-2.67-.46-1.76-.7-2.62-1.85l-.36-.48-.2-.28-.22-.39-.2-.5v-.09q0-.46.62-.72.65-.27 1.43-.27.9 0 1.03.29l.16.23q.05.07.05.1.02.01.02.03v.04q.02 0 .06.05l.13.18q1.07 1.3 2.87 1.3h.11q1.41-.06 1.87-.2l.23-.05.25-.08q.07-.04.2-.08.14-.05.22-.1l.2-.1q.12-.06.22-.14.1-.08.17-.17.44-.46.44-.88 0-.72-1.2-1.14-1.19-.42-2.77-.48-2.2-.1-4.22-1.09-1.66-.82-1.83-2.92-.02-.13-.02-.36 0-.55.17-1.03.2-.5.33-.69l.57-.78q.72-.97 2.27-1.56 1.54-.6 3.32-.6 1.68 0 3.1.58 1.46.57 2.34 1.73zM272.04 115.41q1.18.04 1.85.04l2.43-.02q1.6-.04 2.23-.04 1.85 0 2.34.2.25.09.42.4.2.3.21.5.02.18.02 1.69 0 .2-.25.46-.22.25-.55.38-.53 0-1.33.04-.79.04-1.17.04l-1.12-.04h-.08q-.48 0-.9.3-.42.29-.42.77v.1l-.02 2-.01 2.78q0 1.13.03 2.73v.65q0 .5-.05.91-.04.42-.16.73-.1.25-.42.42-.3.17-.5.19-.18.02-1.7.02-.5 0-.8-.73-.18-.47-.18-2.86V125.75l.02-.5.02-.35v-.14l.03-1.52-.01-.98v-.95l.01-1.05q-.01-1.13-1.43-1.18-.4-.02-1.14-.02h-.73q-1.05 0-1.31-.12-.56-.23-.75-.57-.17-.34-.17-1.07 0-.5.02-.82.04-.32.3-.65.27-.32.56-.34.25-.04.42-.04h.11l.33-.02q1.41-.04 2.55-.04.88 0 1.3.02zM288.13 125.43l-.02.15v.52l.02.32v.52l.01.45q.04.44.04.98 0 .26-.04.8-.11 1.24-.9 1.41-.14.04-.47.04-.32 0-.51.02-.9-.06-1.17-.23-.25-.17-.4-.94-.1-.8-.1-4.1v-5.07l-.01-1.01v-.9q0-1.03.11-1.49.1-.36.29-.63.2-.27.6-.42.4-.17.77-.27.36-.1 1.05-.13.7-.04 1.18-.04.5-.02 1.43-.02 1.99.04 2.79.25v.06q1.3.34 2.16 1.43.87 1.07.87 2.56 0 .99-.44 2.06-.26.65-.57 1.07-.28.42-.84.78-.74.47-1.12.6-.38.14-1.28.28l.32.38.35.34q.59.73 1.77 2 1.18 1.26 1.6 1.76l.2.29q.15.2.2.3.06.1.12.25.07.15.07.27 0 .32-.51.59l-.94-.02-1-.02q-.67 0-1.34-.61l-2.23-2.39q-1.44-1.52-2.06-2.2zm.8-7.23q-.52.02-.63.17-.25.3-.25 1.8 0 1.25.25 1.48.15.14 1.3.14 1.23 0 1.54-.08.57-.12.9-.57.32-.48.32-1.07 0-.6-.34-1.09-.33-.51-.96-.69-.28-.1-1.5-.1zM301.48 115.41q.78.04 1.2.56.12.13.3.42l.54.66q1.93 2.27 2.18 2.62.34.5.82.99.36-.44.78-1l.57-.74q2.18-2.6 2.4-2.92.44-.6 1.19-.6l.11.01h.33q.42 0 1.24.1.55.07.55.55 0 .52-.48 1.13-.8 1-1.45 1.77-.22.3-1.52 1.93l-1.43 1.9q-.52.7-.52 3.46v1.22l.02 1.1q0 1.34-.17 1.69-.17.38-.73.38h-.13l-.69.02h-1.03q-.57-.06-.84-.65-.07-.94-.07-3.4v-1.54l.02-.44q0-1.24-.42-1.78l-.6-.7q-.4-.48-.7-.88-1.41-1.9-2.14-2.77-.97-1.18-1.33-1.68-.21-.32-.21-.62 0-.58.63-.75.57-.04 1.14-.04z" style="font-family:Naboj;-inkscape-font-specification:Naboj"/></g></svg>
