<svg width="339" height="181" xmlns="http://www.w3.org/2000/svg"><path fill-rule="evenodd" d="M75.3 0C44 20.4 0 66.7 0 91.1c0 24.5 48 69.3 75.9 89.7-23-21.2-75-67.7-75-89.6C.7 69.2 51 18.8 75.2 0zm97.3 5.5c-40 10-143.2 48.2-163.7 73C40.9 51.3 134 19 172.6 5.4zm166.5 15.8c-117 5.9-203.2 21.1-231.2 27.4-17.6 4-63.2 13.5-87.2 24.8 12.3-5.7 47-13.1 74.1-19.2 55.4-12.6 137.2-24 244.3-33zM52 71a138.1 138.1 0 0 0-30.3 4c-5 1.2-9.5 3-12.6 5a14 14 0 0 0-5.8 7c-1 2.4-1 5-.3 7.4.7 2.5 2.4 4.9 5.2 6.9 2.9 2 7 3.7 11.7 4.9a99.5 99.5 0 0 0 15.8 2.2c5.6.4 11.4.6 16.6.6 5.2 0 9.8-.3 12.7-.7 2.9-.4 4-1 4.8-1.8 1-.8 1.6-1.8 2-4a180.6 180.6 0 0 0 .6-18c-.2-3-.3-5.6-.7-7.4-.4-2-1-3-2.1-3.8-1-.8-2.4-1.3-5.4-1.7-3-.4-7.4-.6-12.1-.6zm-.7 4c3.7 0 7.8.2 12.2.4-42.3.4-50 10.6-56 11.6 1.8-3 7.7-12 43.8-12zm-42 28.9c20.5 24.7 123.7 63 163.7 73-38.5-13.6-131.7-46-163.7-73zm10.9 4.3c24 11.3 69.6 20.9 87.2 24.8 28 6.3 114 21.6 231.1 27.4-107-9-188.8-20.4-244.2-33-27-6-61.8-13.4-74.1-19.2zM124.7 72c.9.1 1.5.4 2 .7.4.3.7.8.8 2.8.2 2 .2 5.5.2 9.5v11.6c0 3.1 0 4.9-.3 6.1-.3 1.2-.7 2-1.2 2.4-.6.5-1.3.7-2.3.7-1 0-2.4 0-3.4-.4-1-.3-1.8-1.3-2.8-2-1-.8-2.2-2.1-4.3-4.3-3.3-3.6-6.6-7.6-9.4-10.7-2.8-3.1-2.9-1.7-2.7 2.5 0 3.8.2 8.9 0 12.7 0 1.2-.2 1.6-.5 1.9-.3.3-.6.5-1.5.7H96c-1-.2-1.7-.5-2-1-.3-.4-.6-1-.7-2.6a774.7 774.7 0 0 1-.2-19.7c0-3.7.2-6.7.4-8.3.3-1.6.7-1.9 1.1-2 .5-.3 1-.4 1.8-.5.9 0 2 0 3 .4 1 .3 1.7.8 2.6 1.8 1 1 2.1 2.4 3.8 4.5l5.8 7a122.2 122.2 0 0 0 6.7 7.6c1.5.8 1.3-.5 1.4-2l-.2-7.8v-8.3c.2-1.8.4-2.2.7-2.6.3-.3.8-.6 1.6-.7h2.8zm37.5 0h-1.3c-.7.2-1.2.4-1.7.8-.5.3-1 .9-2 2.6a249.8 249.8 0 0 0-9.8 17.9 87.3 87.3 0 0 0-3.9 8.3c-.7 1.8-.5 2.5-.4 3 .2.5.5 1 1.7 1.2 1.3.3 3.2.2 4.5.2 1.7 0 2-.7 2.8-2l1.9-4c.5-1.2.7-1.5 1-1.6.4-.2 1.5-.2 2.8-.2h8.7c.9 0 2 .1 2.4.4.4.2.6.6 1.1 1.6l1.8 3.5c.4 1 1 1.5 1.4 1.9.5.3.7.5 2 .5l4-.1c1.1-.1 1.3-.4 1.5-.8.2-.3.3-.8-.3-2.6-.6-1.7-2-4.8-3.7-8.3l-5.3-11a85.2 85.2 0 0 0-4.2-8c-1-1.7-1.4-2.2-2-2.5-.4-.4-1-.6-1.8-.7h-1.2zm0 10.6.4.2c.7.6 3.3 6.2 3.5 7.5.1 1.2 0 1.3-3.5 1.2l-3.6-.1c-1-.3-1.2-.5-1-1.3 0-1.2 3-6.5 3.8-7.3l.5-.2zm.1-17.1c0 .2.2.5.8.6h4.8l1.5-.1c.5 0 1-.2 1.6-.6l2.8-2.1 2.5-2.6c.7-.6.7-1 .5-1.2-.2-.3-.7-.6-1.4-.7l-2.2-.1h-3c-.9 0-1.3.1-1.6.3a9 9 0 0 0-1.7 1.4l-3.6 3.6c-1 1-1 1.2-1 1.5zm43.3 6.3-2.8.1c-2.3.3-5.2.6-5.8 3.2-.4 1.6-.2 4.2-.2 7.6v11.4c0 3.6 0 6.5.2 8.3.4 2.3 1.8 3.6 4.4 3.8a100 100 0 0 0 14.5 0c2.2-.3 3.8-1 5-2.1a11.4 11.4 0 0 0 2.4-8.3 8.4 8.4 0 0 0-1.5-3.8c-.8-1.1-1.8-1.9-2.5-2.4s-1-.8-1-1c0-.3.3-.5.8-1a8.5 8.5 0 0 0 2.3-9.1 8.5 8.5 0 0 0-2.1-3.6c-1-1-2.4-2-4.2-2.4v-.2a30 30 0 0 0-6.2-.5h-3.3zm.9 6.2h1.4c1.6 0 2.8.1 3.3.3a4 4 0 0 1 3 3.7c0 2-1 3.5-2.8 3.9a24.5 24.5 0 0 1-6.3-.2c-.3-.2-.4-.5-.5-2a12 12 0 0 1 .4-5.3c.3-.2.4-.3 1.5-.4zm2.1 14.3h2.4c1.4.1 2.3.3 3 .8a4 4 0 0 1 2 1.9c.3.8.3 1.5 0 2.4a4 4 0 0 1-1.8 2.1c-.7.5-1.7.7-3.1.8h-4.4c-1-.1-1.3-.2-1.5-.5-.3-.2-.4-.6-.5-1.2v-4.3c0-.6.1-1 .3-1.3.1-.3.4-.4 1.5-.5l2.1-.2zm52.7-19.1a15 15 0 0 1 5.9 4.8c1.6 2.2 2.8 4.9 3.3 8 .5 3 .3 6.4-.4 9.2-.8 2.8-2.1 5-3.9 6.8-1.8 1.8-4 3-7 3.7-2.8.6-6.6.6-9.4-.2a13 13 0 0 1-6.4-4 15.1 15.1 0 0 1-3.5-6.5 24 24 0 0 1-.5-8.9c.4-3 1.3-5.7 2.7-7.8a13 13 0 0 1 5.4-4.7c2.1-1 4.6-1.5 7-1.5 2.4-.1 4.7.2 6.8 1.1zm-2.9 6.7c1.2.5 2.2 1.4 3.1 2.7.9 1.2 1.5 2.7 1.8 4.5.3 1.7.1 3.6-.3 5.1a8.6 8.6 0 0 1-2 3.9c-1 1-2 1.7-3.6 2-1.6.4-3.6.4-5 0a7 7 0 0 1-3.5-2.4c-.8-1-1.4-2-1.8-3.6-.4-1.5-.5-3.3-.3-5 .2-1.6.7-3.2 1.5-4.3a7.2 7.2 0 0 1 2.8-2.7 9 9 0 0 1 3.7-.8c1.3 0 2.5 0 3.6.6zm52.4-7.9c1.3.1 1.7.5 2 .9.3.4.6 1 .8 2.8l.2 8.5v8.7a22 22 0 0 1-1.2 6.3c-.8 1.8-2 3.4-3.4 4.6a9.9 9.9 0 0 1-4.4 2.1 18 18 0 0 1-5.3.5c-2 0-3.9-.3-5.8-1.2-1.8-.9-3.6-2.3-4.6-3.9a9 9 0 0 1-1.4-4.3c0-1 .2-1.4.4-1.7.3-.4.6-.6 1.5-.8h3.3c1 .1 1.3.3 1.7.6l.8 1.2c1 1.6 2.4 2.1 4 2.5 2.3 0 4.4-.4 5.7-2.2.6-1.2 1.2-2 1.3-4.3V84c0-2.9-.3-4-2.3-4.3-2-.3-3.1-.1-5.7 0a83 83 0 0 1-7.5-.2c-1.8 0-2.3-.3-2.7-.7-.3-.4-.5-.9-.6-1.8v-2.9c.1-.8.3-1.3.6-1.6.3-.3.7-.5 2.2-.6 1.4-.2 4-.2 6.5-.2h7.6l6.3.1zm-104.5 42.5h-1.4c-1 .2-2.4.4-2.7 1.5-.2.7-.1 1.9-.1 3.4v9.1c.3 1 .5 1 1.7 1.1h1c.6-.1 1-.4 1-1.4v-3.7c0-.3 0-.4.2-.6l.7-.2h2.3c1.8-.3 1.9-.3 3-1 .9-.5 1.2-1.1 1.5-1.9l.5-1.5a4 4 0 0 0-1.2-3.4c-.5-.5-1.2-.8-2-1v-.1c-.9-.2-2-.2-3-.3h-1.5zm.4 2.8h.6l1.6.1c.9.2 1.4.9 1.4 1.7 0 .9-.5 1.5-1.3 1.7a12.5 12.5 0 0 1-3 0c-.1-.2-.2-.3-.2-1-.1-1 0-2 .2-2.3.1-.1.2-.2.7-.2zm68.6-2.8c.7 0 1 .3 1.1.5.2.2.3.4.3 1.2v10.5c0 .5.1 1.6-.2 2.3-.1.3-.7.6-1 .6H274c-.3 0-.8-.3-1-.7-.2-.4-.2-.5-.2-1.4V120c0-1.6-.1-4.5.2-4.9.2-.3.4-.6 1-.7h1.4zm12.8.1c-1 0-2.3.2-3.3.6a6 6 0 0 0-2.5 2.1 7 7 0 0 0-1.3 3.5c-.2 1.3-.1 2.7.2 4 .3 1 .9 2 1.7 2.8.7.8 1.6 1.4 3 1.8 1.4.3 3.1.3 4.5 0 1.4-.2 2.5-.7 3.3-1.5.8-.8 1.7-1.8 1.7-3 0-.7-1.5-1-2.5-.7-.5.2-1 1.1-1.2 1.3-.4.5-1.2.7-2 .8-.7.2-1.9 0-2.6-.2a3.6 3.6 0 0 1-2.5-2.6 6 6 0 0 1-.1-2.3c0-.7.3-1.4.7-2 .3-.4.8-.8 1.3-1a4.5 4.5 0 0 1 3.5-.2l1.5 1.2.4.7c.3.6 3.5.4 3.3-.9-.4-1-.4-1-1-1.8a7 7 0 0 0-6.1-2.6zm-58.2-.1c-.7 0-.8.4-1 .7-.3.3 0 3 0 4.6 0 .6-.4 1-1 .9h-5.5c-.7 0-.8-.4-.8-1v-3.4c0-.9-.2-1.2-.3-1.3-.2-.2-.4-.4-1-.5h-1.5c-.7.1-.8.4-1 .8-.3.3-.2 3.3-.2 4.9v7.3l.1 1.4c.2.4.6.8.8.7h2c.2 0 .8-.3 1-.6.2-.7 0-1.8.1-2.3v-2c0-.8.4-.9.8-.9h5.5c.5 0 .9.3.8 1v2.7c0 .6 0 1 .2 1.4.1.4.6.7.9.7h1.8c.2 0 .7-.3.9-.6.3-.7.1-1.8.2-2.4 0-2.2-.2-4.3 0-6.6v-3.8c-.1-.9-.2-1-.4-1.2-.1-.2-.3-.4-1-.5h-1.4zm8.4 0h.6l.7.5c.3.4.2.4.9 1l1.2 1.4 1 1.3 1 1 1.4-1.7 1.7-2 .9-1c.3-.3.6-.6 1.5-.6l1.5.1c1 .2.5 1.3.1 1.7-.4.5-.7 1-1.5 1.8-.8 1-1 1-1.7 2l-1.5 1.8c-.5.6-.5 2.4-.6 3v2.2c0 .7.1 1.8-.1 2.3-.2.4-.6.3-1 .3h-1.8c-.2 0-.6 0-.9-.6v-4.5c0-1 0-2-.5-2.6l-1.4-1.6c-.5-.7-1.4-1.9-2.3-2.8l-1.4-1.6c-.4-.6-.2-1.2.5-1.4h1.7zm22.7-.1c-1 0-2.2.2-3.3.6a5 5 0 0 0-2.4 1.6c-.7.8-1.2 1.4-1.1 2.8.1 1.4.8 2.4 2 3 1.1.5 2.6 1 4.5 1 2 .1 3.2.5 3.8 1 .7.5.4 1 0 1.5-.5.5-1 .6-1.7.7-.6.2-1.4.2-2 .2-.6 0-1.1 0-1.7-.2-.5-.2-1-.6-1.4-1-.5-.5 0 0-.5-.7-.3-.5-3.5-.3-3.3.8.4.9.4.9 1 1.6.8 1 1.8 1.5 2.8 1.9 1 .4 2.2.5 3.3.4 1.1 0 3.2-.1 4.3-.7 1-.5 1.6-1 2-1.6.5-.6.7-1.4.8-2.5 0-1.2-.8-2.1-2-2.8-1.2-.8-3.3-1.3-4.8-1.3s-2.6-.4-3.1-.8-.3-1.2 0-1.5c.2-.3.6-.6 1.2-.8a4.3 4.3 0 0 1 3.6 0c.5.2 1 .5 1.4 1l.5.6c.4.5 3.4.3 3.2-.8-.4-.9-.4-.9-1-1.7a6.3 6.3 0 0 0-2.8-1.8c-1-.4-2.1-.5-3.2-.5zm46 0c-1.2 0-2.3.2-3.4.6a5 5 0 0 0-2.4 1.6c-.7.8-1.2 1.4-1.1 2.8.1 1.4.8 2.4 2 3 1.1.5 2.6 1 4.5 1 2 .1 3.2.5 3.8 1 .7.5.4 1 0 1.5-.5.5-1 .6-1.7.7-.6.2-1.4.2-2 .2-.6 0-1.1 0-1.7-.2-.5-.2-1-.6-1.4-1-.5-.5 0 0-.5-.7-.3-.5-3.5-.3-3.3.8.4.9.4.9 1 1.6.8 1 1.8 1.5 2.8 1.9 1 .4 2.2.5 3.3.4 1.1 0 3.2-.1 4.3-.7 1-.5 1.6-1 2-1.6.5-.6.7-1.4.8-2.5 0-1.2-.8-2.1-2-2.8-1.2-.8-3.3-1.3-4.8-1.3s-2.6-.4-3.1-.8-.3-1.2 0-1.5c.2-.3.6-.6 1.2-.8a4.3 4.3 0 0 1 3.6 0c.5.2 1 .5 1.4 1l.5.6c.4.5 3.4.3 3.2-.8-.4-.9-.4-.9-1-1.7a6.3 6.3 0 0 0-2.8-1.8c-1-.4-2.1-.5-3.2-.5z"/></svg>
