<svg width="339" height="181" xmlns="http://www.w3.org/2000/svg"><path d="m75.2 0-.5.4.6-.4h-.1zm-.5.4C43.5 21 0 66.8 0 91.1c0 24.5 48 69.3 75.9 89.7-23-21.2-75-67.7-75-89.6C.7 69.3 50.3 19.5 74.7.4zm97.9 5-1.1.4 1.1-.3v-.1zm-1.1.4a771 771 0 0 0-99.7 35.6A24.1 24.1 0 0 1 73 39l-.9-.4-1.5 3.1a24.2 24.2 0 0 0 0 .3l-2 .9a13.6 13.6 0 0 1-.2-.5v-3h-1v3a12 12 0 0 0 .2 1c-27 12-50.1 24.7-58.7 35.1 12.6-10.7 34.7-22.2 59.1-33a12 12 0 0 0 .8 1.9 357.1 357.1 0 0 0-14.6 14.3 232 232 0 0 0-33.5 11.8A223 223 0 0 1 52 64.1a357.1 357.1 0 0 0-5.6 5.9 141.5 141.5 0 0 0-24.6 4 42 42 0 0 0-13 5.2 15.4 15.4 0 0 0-6.3 7.5 12.4 12.4 0 0 0-.3 8.3c.8 2.7 2.7 5.3 5.7 7.5a35 35 0 0 0 12.3 5c5.2 1.2 10.5 2 16 2.2 4.6.4 9.3.6 14 .7 5.7 1 16.6 2.7 28.5 3.7a11.3 11.3 0 0 0 1.8 4.9c.9 1.5 1.8 2.6 1.8 2.6l.8-.6-1.7-2.5a14.7 14.7 0 0 1-1.5-3.3 29.9 29.9 0 0 0 6.7 4.3l.5-1-3-1.5a22 22 0 0 1-3.7-2.7 215.4 215.4 0 0 0 8.6.5v-1c-3 0-6-.3-9-.5 1.7-2.8 2.7-5.3 2.7-5.3l-1-.4s-1 2.8-2.8 5.6a332.8 332.8 0 0 1-23-2.9c4.1-.1 7.6-.4 10-.7 3-.5 4.6-1.2 5.6-2.1 1-1 2-2.4 2.2-4.7.3-2.7.4-5.5.5-8.2A159 159 0 0 0 99 83.3l2 2.9c.1.3.5.3.8 0 0 0 2.5-2.8 7.3-5.4 2.4-1.3 4.1-2 5.8-1.7 1.7.3 3.5 1.4 5.8 3.5.4.4 1 0 .9-.4a15.2 15.2 0 0 0-7.3-9.3l.8-.6c.2-.2.2-.4 0-.7l-1-1.8a.5.5 0 0 0-.5-.3.5.5 0 0 0-.2.1L97.5 80.1a.5.5 0 0 0 0 .6l1 1.7a160 160 0 0 1-24.2 11.1V82.6a152 152 0 0 0 21-15.8L98 69h.7l12.7-14a.5.5 0 0 0 0-.6l-1.7-1.6a.5.5 0 0 0-.7 0l-.7.6a14.3 14.3 0 0 0-1-1.8c55-11.5 132.3-22 231.8-30.3-117 5.9-203.2 21.1-231.2 27.4l-2.2.5A14.3 14.3 0 0 0 100 45c-.3 0-.5.5-.3.8 1.2 1.7 1.9 3 2.2 4.3a866.5 866.5 0 0 0-45.7 11.1 361.6 361.6 0 0 1 13.5-13c3 1 5.6 2.7 5.6 2.7l.6-.9s-2.5-1.5-5.4-2.6l6.8-6c35-14.8 72.6-28 94.3-35.6zM74 42.8l-3.9 3.4a24.1 24.1 0 0 1 .6-2l3.3-1.4zm-4.4 2a24.2 24.2 0 0 0-.4 1.2 13.6 13.6 0 0 1-.2-1l.6-.2zm32.4 8c-.3 1.4-1.3 3-3.3 5.9A24.7 24.7 0 0 1 93 64a.5.5 0 0 0 0 .7l1.6 1.4a151.9 151.9 0 0 1-20.4 15.4 35.6 35.6 0 0 0-.6-4.9c-.4-2-1.2-3.5-2.5-4.4a12 12 0 0 0-6-2 106.4 106.4 0 0 0-17.3-.4 361.6 361.6 0 0 1 5.9-6.1c13.2-3.2 28-6.5 41.1-9.4l7.3-1.5zm98.2 5.9c-.8 0-1.2.1-1.6.3a9 9 0 0 0-1.6 1.4l-3.7 3.6c-1 1-1 1.2-1 1.5h-.1c0 .2.3.5 1 .6h4.7l1.6-.1c.4 0 .9-.2 1.6-.6l2.8-2.1 2.5-2.6c.7-.6.7-1 .4-1.2-.2-.3-.6-.6-1.3-.7l-2.2-.1h-3.1zm113.7 13c-2.5 0-5 0-6.5.2-1.5.1-1.8.3-2 .6-.3.3-.5.8-.7 1.6V77c.1.9.3 1.4.6 1.8.4.4.9.7 2.7.7a83 83 0 0 0 7.6.2c2.5-.1 3.7-.3 5.7 0 1.9.3 2.2 1.4 2.2 4.3v8.3a6.8 6.8 0 0 1-1.4 4.3c-1.3 1.8-3.3 2.2-5.4 2.2-1.9-.4-3-.9-4-2.5l-1-1.2c-.3-.3-.7-.5-1.7-.6h-3.2c-.9.2-1.2.4-1.5.8-.3.3-.5.7-.3 1.7a9 9 0 0 0 1.3 4.3c1 1.6 2.8 3 4.7 3.9 1.8.9 3.8 1.2 5.8 1.2a19 19 0 0 0 5.3-.5 9.9 9.9 0 0 0 4.5-2.1 13 13 0 0 0 3.2-4.6 19 19 0 0 0 1.3-6.3v-8.7c0-3.2 0-6.5-.3-8.5-.2-1.8-.4-2.4-.8-2.8-.3-.4-.6-.8-2-.9l-.1-.2-6.3-.1H314zm-82.6.1-2.8.1c-2.3.3-5.2.6-5.8 3.2-.5 1.6-.3 4.2-.3 7.6v11.4c0 3.6 0 6.5.3 8.3.4 2.3 1.7 3.6 4.3 3.8a100 100 0 0 0 14.6 0c2.2-.3 3.8-1 5-2.1a8 8 0 0 0 2-4c.4-1.5.5-3 .3-4.3a8.4 8.4 0 0 0-1.4-3.8 9.3 9.3 0 0 0-2.4-2.4c-.7-.5-1-.8-1-1 0-.3.3-.5.8-1a8.5 8.5 0 0 0 2.4-9.1 8.5 8.5 0 0 0-2.2-3.6c-1-1-2.4-2-4.2-2.4v-.2a30 30 0 0 0-6.2-.5h-3.4zM156 72c-.8.1-1.3.4-1.5.7-.3.4-.5.8-.8 2.6v8.3l.2 7.8c-.1 1.5.1 2.8-1.4 2a122.1 122.1 0 0 1-6.7-7.6l-5.8-7c-1.7-2.1-2.8-3.5-3.8-4.5-.9-1-1.6-1.5-2.6-1.8-1-.4-2-.4-3-.4-.8.1-1.3.2-1.8.5-.4.1-.8.4-1.1 2a74 74 0 0 0-.4 8.3 766 766 0 0 0 .2 19.7c.1 1.6.4 2.2.7 2.6.3.5 1 .8 2 1h3.3c.9-.2 1.2-.4 1.5-.7.3-.3.5-.7.5-1.9.2-3.8 0-8.9 0-12.7-.2-4.2-.1-5.6 2.7-2.5 2.8 3.1 6.1 7.1 9.4 10.7 2.1 2.2 3.3 3.5 4.3 4.3 1 .7 1.9 1.7 2.9 2 1 .4 2.4.4 3.4.4s1.7-.2 2.3-.7c.5-.4.9-1.2 1.2-2.4.3-1.2.3-3 .3-6.1a724.2 724.2 0 0 0-.2-21.1c-.1-2-.4-2.5-.8-2.8a6 6 0 0 0-2-.7h-3zm35 0c-.8.2-1.3.4-1.8.8a9 9 0 0 0-2 2.6 249.9 249.9 0 0 0-9.7 17.9 87.3 87.3 0 0 0-4 8.3c-.7 1.8-.6 2.5-.4 3 .2.5.5 1 1.7 1.2 1.3.3 3.2.2 4.5.2 1.6 0 2-.7 2.7-2l2-4c.5-1.2.6-1.5 1-1.6.4-.2 1.5-.2 2.8-.2h8.6c1 0 2 .1 2.4.4.4.2.7.6 1.2 1.6l1.7 3.5c.5 1 1 1.5 1.4 1.9.5.3.7.5 2 .5l4.1-.1c1-.1 1.3-.4 1.4-.8.2-.3.4-.8-.2-2.6-.6-1.7-2-4.8-3.7-8.3l-5.3-11a85.2 85.2 0 0 0-4.2-8c-1-1.7-1.3-2.2-2-2.5a3 3 0 0 0-1.7-.7H192l.3-.1H191zM57.8 72l6.8.6c3 .4 4 1 5 1.5.8.6 1.2 1.3 1.7 3a159 159 0 0 1 0 25.2c-.3 2-.8 2.7-1.4 3.3-.8.6-1.5 1-4.2 1.4-4.2.5-8.4.8-12.7.8-5.4 0-11-.1-16.4-.5a32.1 32.1 0 0 0 1.3-6.8 7 7 0 0 0 4.3 1.5c3.7 0 6.8-2.8 6.6-6.2 0-1-.3-2-.7-3l1 .6c1.3.7 2.7 1.1 4 1.2h1c.2 0 .3-.2.6-.5a.8.8 0 0 0 0-.8l-.1-.5c-.3-.6-1-1.2-1-2s.7-1.8 1-2.8c.1-.4.4-1 0-1.5 0-.3-.2-.5-.5-.6l-1-.2c-1.6 0-3 1-4.4 2l-2.3 1.2a6 6 0 0 0 1.8-3.7c0-3-2.8-5.4-6-5.4a7 7 0 0 0-3.9 1.2c-.3-3.1-.6-5.8-1.1-7.6l1-.1c7.2-.5 13-1.4 19.6-1.2zm219.1 0-.9.1a18 18 0 0 0-7 1.5 13 13 0 0 0-5.2 4.7 18.6 18.6 0 0 0-2.8 7.8c-.4 2.9-.2 6.2.6 8.9a15.1 15.1 0 0 0 3.4 6.5 13 13 0 0 0 6.5 4c2.8.8 6.4.8 9.4.2 2.9-.7 5.1-1.9 6.7-3.7 2-1.8 3.3-4 4-6.8.7-2.8.9-6.2.5-9.2-.5-3.1-1.7-5.8-3.3-8a15 15 0 0 0-5.9-4.8h.1c-2-.8-4-1.1-6-1.1zM27 77.3v.1C12.8 81 10.4 87.7 7.2 87c1-2.9 10.5-8.8 19.8-9.8zm205.4.8h1.4c1.5 0 2.7.1 3.3.3A4 4 0 0 1 240 82c0 2-1 3.5-2.7 3.9a24.5 24.5 0 0 1-6.3-.2c-.3-.2-.4-.5-.5-2a12 12 0 0 1 .4-5.3c.3-.2.4-.3 1.5-.4zm44 1.3c1.2 0 2.4 0 3.6.6h.1a7 7 0 0 1 3 2.7c1 1.2 1.5 2.7 1.7 4.5a11 11 0 0 1-.1 5.1 8.6 8.6 0 0 1-2 3.9c-1 1-2.1 1.7-3.7 2-1.5.4-3.5.4-5 0a7 7 0 0 1-3.4-2.4c-.8-1-1.5-2-1.8-3.6-.4-1.5-.6-3.3-.4-5 .3-1.6.8-3.2 1.5-4.3a7.5 7.5 0 0 1 2.8-2.7 9 9 0 0 1 3.7-.8zM42 80.6v.1c2.8 0 5 2 5 4.4 0 2.4-2 4.4-5 4.4a6.4 6.4 0 0 1-2.5-.5c1 0 1.7-.3 2.3-.6a2 2 0 0 0 1-1.7 2 2 0 0 0-1-1.7c-.6-.4-1.4-.6-2-.6-.8 0-1.5.3-2 .7a1.8 1.8 0 0 0-.8.8V85c0-2.4 2.1-4.4 5-4.4zm150.3 2 .4.2c.8.6 3.3 6.2 3.5 7.5.2 1.2 0 1.3-3.4 1.2l-3.8-.1c-1-.3-1-.5-1-1.3 0-1.2 3-6.5 4-7.3l.3-.2zM60.4 84.2a2 2 0 0 0-1.4.6l-1 1.3a9.4 9.4 0 0 0-.7 4c0 1.4.3 2.7.8 3.8.3.5.6 1 1 1.3.2.3.8.6 1.3.6s1-.3 1.4-.6l1-1.3c.3-1 .7-2.4.7-4 0-1.4-.3-2.8-.8-3.8a4 4 0 0 0-1-1.3 2 2 0 0 0-1.3-.6zm-21.8 5.3c.3.3.6.4 1 .6l-1 .5v-1.1zm3.6 1c3.2 0 5.7 2.4 5.7 5.2 0 3-2.5 5.2-5.7 5.2-3 0-5.6-2.3-5.6-5 0-3 2.4-5.3 5.6-5.4zm192.3 1.8h2.2c1.6.1 2.5.3 3 .8 1 .4 1.8 1 2 1.9.5.8.5 1.5 0 2.4a4 4 0 0 1-1.5 2.1c-.8.5-1.8.7-3.2.8h-4.3c-1.1-.1-1.4-.2-1.6-.5-.3-.2-.4-.6-.5-1.2v-4.4c0-.5 0-1 .3-1.2.2-.3.4-.4 1.5-.5l2.1-.2zm-194.7.4a3.7 3.7 0 0 0-2 .6 2.1 2.1 0 0 0-1 1.7 2 2 0 0 0 1 1.7 3.8 3.8 0 0 0 2 .6c.7 0 1.4-.2 2-.6.5-.4 1-1 1-1.7a2 2 0 0 0-1-1.7 3.2 3.2 0 0 0-2-.6zM9.3 103.9c20.5 24.7 123.7 63 163.7 73-38.5-13.6-131.7-46-163.7-73zm10.9 4.3c24 11.3 69.6 20.9 87.2 24.8 16.6 3.7 54 10.6 105.6 16.8v4.6c0 1.6-.3 2.7-.6 3.3-.6.5-1.3.8-2.6.8h-1v4.2h3c2.6 0 4.4-.7 5.6-2.2 1.4-1.3 2-3.4 2-6v-3.9c34.2 4 74.3 7.6 119.1 9.8a2953 2953 0 0 1-119.1-12.3v-23.6H213v22.8c-47.7-6.1-87.5-12.8-118.7-19.9-27-6-61.8-13.4-74.1-19.2zm192.8 8.5v5.2h6.4v-5.2H213zm65 0v5.2h6.4v-5.2H278zm50.6 7.3a7.7 7.7 0 0 0-3.3 1 8.2 8.2 0 0 0-2.9 2.8v-3.3H316v20.2h6.5v-9.3c0-2 .4-3.6 1.4-4.6a5 5 0 0 1 3.6-1.6 7.8 7.8 0 0 1 3.3.7v-5.7l-1-.2a7.7 7.7 0 0 0-1.2 0zm2.2 5.9v.1h.3a7.8 7.8 0 0 0-.3-.1zM265 124a8 8 0 0 0-3.7.9c-1 .6-2 1.4-3 2.6v-3H252v20.2h6.3v-9.9a7 7 0 0 1 1-4.3 3.8 3.8 0 0 1 3.2-1.6 3 3 0 0 1 1.5.3l1 1c.2.3.5.8.5 1.5v13h6.5v-12.3h.1c0-2.7-.6-4.8-1.8-6.2a6.8 6.8 0 0 0-5.3-2.2zm35.2 0c-3.5 0-6.1 1-8.1 2.8-2 1.9-3 4.5-3 7.8s1 5.9 3 7.8c1.9 1.8 4.6 2.8 8.2 2.8 3.4 0 6-1 8-2.8 2-1.8 3-4.5 3-7.8s-1-5.8-3-7.8a11.4 11.4 0 0 0-8.1-2.8zm-74.8.5v12.3c0 2.7.6 4.8 1.9 6.2 1.2 1.5 3 2.2 5.2 2.2 1.3 0 2.5-.3 3.8-.8 1-.7 2-1.5 3-2.7v3h6.2v-20.2h-6.3v10a7 7 0 0 1-1.3 4.3c-.6 1-1.7 1.5-3 1.5a2.7 2.7 0 0 1-2.5-1.3c-.2-.3-.5-.8-.5-1.5a591.6 591.6 0 0 0 0-11v-2h-6.5zm52.6 0v20.2h6.5v-20.2H278zm22.2 4.1a4 4 0 0 1 3.3 1.6c.7 1 1 2.4 1 4.4 0 1.9-.3 3.5-1.1 4.5-.7 1-1.8 1.5-3.2 1.5a4 4 0 0 1-3.3-1.5c-.7-1.1-1-2.5-1-4.5 0-1.9.3-3.4 1-4.4a4 4 0 0 1 3.3-1.6z"/></svg>
