<?xml version="1.0" encoding="UTF-8" standalone="no"?>
<svg
   xmlns:dc="http://purl.org/dc/elements/1.1/"
   xmlns:cc="http://creativecommons.org/ns#"
   xmlns:rdf="http://www.w3.org/1999/02/22-rdf-syntax-ns#"
   xmlns:svg="http://www.w3.org/2000/svg"
   xmlns="http://www.w3.org/2000/svg"
   version="1.0"
   id="svg2"
   height="180.82727"
   width="339.08032">
  <defs
     id="defs4" />
  <metadata
     id="metadata7">
    <rdf:RDF>
      <cc:Work
         rdf:about="">
        <dc:format>image/svg+xml</dc:format>
        <dc:type
           rdf:resource="http://purl.org/dc/dcmitype/StillImage" />
        <dc:title></dc:title>
      </cc:Work>
    </rdf:RDF>
  </metadata>
  <g
     transform="translate(-79.194989,-91.599921)"
     style="display:inline"
     id="layer2" />
  <g
     transform="translate(-79.194989,-91.599921)"
     style="display:inline"
     id="layer1">
    <path
       id="2-5-4"
       d="m 131.35254,162.64377 c -4.72883,0.0703 -9.62296,0.42023 -14.78778,1.05348 -5.1648,0.63325 -10.60454,1.51145 -15.56813,2.8483 -4.963598,1.30169 -9.483766,3.03568 -12.602773,5.11135 -3.152545,2.07564 -4.869131,4.44351 -5.774646,6.90616 -0.939063,2.46264 -1.08351,4.98975 -0.312143,7.45241 0.737831,2.46265 2.338663,4.86185 5.189378,6.86715 2.850702,2.04048 6.982014,3.71626 11.74438,4.87723 4.762364,1.16096 10.156934,1.84087 15.724204,2.26304 5.60081,0.42217 11.38424,0.62048 16.58259,0.58527 5.19836,-0.0352 9.83558,-0.31918 12.71983,-0.74134 2.88424,-0.38699 4.00526,-0.94665 4.87724,-1.75581 0.87199,-0.77396 1.50394,-1.82997 1.87285,-3.9408 0.40247,-2.07567 0.59626,-5.19124 0.66331,-8.42786 0.067,-3.23663 0.0616,-6.56903 -0.039,-9.55938 -0.10061,-3.02554 -0.26085,-5.66587 -0.6633,-7.53045 -0.40246,-1.86458 -1.06731,-2.93272 -2.10697,-3.7067 -1.00614,-0.80915 -2.3996,-1.33364 -5.38447,-1.7558 -2.95132,-0.38699 -7.43927,-0.58146 -12.13455,-0.54625 l -2e-5,0 z m -0.74134,4.01884 c 3.73216,0.002 7.80614,0.10032 12.21259,0.31214 -42.30528,0.40726 -50.118752,10.59384 -55.95163,11.66634 1.748337,-3.00608 7.661437,-11.99861 43.73904,-11.97848 z"
       style="fill:#000000;fill-opacity:1;fill-rule:evenodd;stroke:none" />
    <path
       id="path3872-5-5"
       d="m 99.938228,165.09474 c 23.998422,-11.25913 69.604332,-20.81431 87.198002,-24.78329 27.98663,-6.31353 114.08076,-21.53256 231.13908,-27.38361 -107.03125,9.04929 -188.83048,20.39025 -244.25189,32.9701 -27.03924,6.07302 -61.80741,13.49187 -74.085192,19.1968 l 0,0 z"
       style="font-size:medium;font-style:normal;font-variant:normal;font-weight:normal;font-stretch:normal;text-indent:0;text-align:start;text-decoration:none;line-height:normal;letter-spacing:normal;word-spacing:normal;text-transform:none;direction:ltr;block-progression:tb;writing-mode:lr-tb;text-anchor:start;fill:#000000;fill-opacity:1;stroke:none;stroke-width:2;marker:none;visibility:visible;display:inline;overflow:visible;enable-background:accumulate;font-family:Sans;-inkscape-font-specification:Sans" />
    <path
       id="path3872-1-6-2"
       d="M 88.061974,170.01093 C 108.62667,145.29351 211.8363,107.04122 251.8301,97.064746 213.33396,110.64023 120.09743,142.95144 88.061974,170.01093 z"
       style="font-size:medium;font-style:normal;font-variant:normal;font-weight:normal;font-stretch:normal;text-indent:0;text-align:start;text-decoration:none;line-height:normal;letter-spacing:normal;word-spacing:normal;text-transform:none;direction:ltr;block-progression:tb;writing-mode:lr-tb;text-anchor:start;fill:#000000;fill-opacity:1;stroke:none;stroke-width:2;marker:none;visibility:visible;display:inline;overflow:visible;enable-background:accumulate;font-family:Sans;-inkscape-font-specification:Sans" />
    <path
       id="path3872-5-5-0"
       d="m 99.386035,199.74604 c 23.998425,11.25913 69.604325,20.81431 87.198005,24.78329 27.98663,6.31353 114.08076,21.53256 231.13908,27.38361 -107.03125,-9.04929 -188.83048,-20.39025 -244.25189,-32.9701 -27.03924,-6.07302 -61.80741,-13.49187 -74.085195,-19.1968 l 0,0 z"
       style="font-size:medium;font-style:normal;font-variant:normal;font-weight:normal;font-stretch:normal;text-indent:0;text-align:start;text-decoration:none;line-height:normal;letter-spacing:normal;word-spacing:normal;text-transform:none;direction:ltr;block-progression:tb;writing-mode:lr-tb;text-anchor:start;fill:#000000;fill-opacity:1;stroke:none;stroke-width:2;marker:none;visibility:visible;display:inline;overflow:visible;enable-background:accumulate;font-family:Sans;-inkscape-font-specification:Sans" />
    <path
       id="path3872-1-7"
       d="m 79.19504,182.71992 c -0.05718,24.44135 48.06399,69.30192 75.85212,89.70727 C 132.07266,251.23018 80.101141,204.73863 80.037564,182.75815 79.974012,160.77766 130.30528,110.44048 154.47188,91.599921 123.25051,111.9757 79.252187,158.27856 79.19504,182.71992 z"
       style="font-size:medium;font-style:normal;font-variant:normal;font-weight:normal;font-stretch:normal;text-indent:0;text-align:start;text-decoration:none;line-height:normal;letter-spacing:normal;word-spacing:normal;text-transform:none;direction:ltr;block-progression:tb;writing-mode:lr-tb;text-anchor:start;fill:#000000;fill-opacity:1;stroke:none;stroke-width:2;marker:none;visibility:visible;display:inline;overflow:visible;enable-background:accumulate;font-family:Sans;-inkscape-font-specification:Sans" />
    <path
       id="path3872-1-6-2-1"
       d="M 88.466836,195.43092 C 109.03153,220.14833 212.24116,258.40062 252.23497,268.3771 213.73882,254.80161 120.5023,222.4904 88.466836,195.43092 z"
       style="font-size:medium;font-style:normal;font-variant:normal;font-weight:normal;font-stretch:normal;text-indent:0;text-align:start;text-decoration:none;line-height:normal;letter-spacing:normal;word-spacing:normal;text-transform:none;direction:ltr;block-progression:tb;writing-mode:lr-tb;text-anchor:start;fill:#000000;fill-opacity:1;stroke:none;stroke-width:2;marker:none;visibility:visible;display:inline;overflow:visible;enable-background:accumulate;font-family:Sans;-inkscape-font-specification:Sans" />
    <path
       transform="translate(79.194989,91.599921)"
       id="path3838"
       d=""
       style="opacity:0.97000002;fill:#000000;fill-opacity:1;fill-rule:nonzero;stroke:none;stroke-width:1;marker:none;visibility:visible;display:inline;overflow:visible;enable-background:accumulate" />
  </g>
  <g
     style="display:inline"
     id="layer4">
    <path
       d="m 124.68433,72.009369 c 0.889,0.10413 1.53275,0.34699 1.99258,0.65928 0.45983,0.34699 0.70506,0.79809 0.85834,2.81065 0.15327,1.97786 0.21458,5.5172 0.21458,9.50762 0.0306,3.99043 0.0306,8.50134 0,11.6243 -0.0306,3.12294 -0.12261,4.857901 -0.36786,6.107071 -0.24523,1.21449 -0.64375,1.90847 -1.19554,2.39426 -0.55179,0.4511 -1.25685,0.69399 -2.26848,0.7287 -1.04225,0.0347 -2.39107,-0.10413 -3.43335,-0.4164 -1.04226,-0.34699 -1.77834,-1.30219 -2.7593,-2.06558 -0.98095,-0.79809 -2.17616,-2.06994 -4.29135,-4.256001 -3.29595,-3.55945 -6.62197,-7.64691 -9.42195,-10.725 -2.79998,-3.0781 -2.87255,-1.65204 -2.74355,2.517 0.0643,3.84117 0.18992,8.88464 0.10925,12.725221 -0.12263,1.17977 -0.30335,1.56146 -0.6099,1.87375 -0.30656,0.3123 -0.54879,0.55519 -1.499091,0.6593 -0.980962,0.13879 -2.110862,0.13879 -3.153122,0 -1.04228,-0.1735 -1.686979,-0.4511 -2.024191,-0.90218 -0.337193,-0.4511 -0.552102,-1.04099 -0.674728,-2.60246 -0.122626,-1.59616 -0.153026,-4.163931 -0.183682,-7.772661 -0.03065,-3.57403 -0.03065,-8.18905 0,-11.93658 0.03065,-3.78223 0.123053,-6.69697 0.368286,-8.32784 0.275899,-1.59618 0.673655,-1.87377 1.133474,-2.08196 0.429181,-0.2082 0.920121,-0.347 1.809121,-0.3817 0.85835,-0.0347 1.96115,0.0347 2.972765,0.34699 0.980948,0.27759 1.686028,0.83278 2.605658,1.80437 0.95031,1.00628 2.08456,2.42895 3.80123,4.51092 1.68603,2.11665 3.98515,4.89261 5.73249,7.04397 1.74732,2.15136 3.00419,3.67813 4.10777,4.89261 1.07292,1.21448 2.02321,2.18606 2.60567,2.63715 1.4815,0.84191 1.36616,-0.49049 1.44079,-1.90847 0.0306,-1.70027 -0.12263,-4.75381 -0.18393,-7.91145 -0.0919,-3.15764 -0.0919,-6.38468 0.0306,-8.22374 0.12263,-1.83907 0.33722,-2.29017 0.67442,-2.63716 0.30654,-0.31229 0.73572,-0.55519 1.53275,-0.69398 0.79703,-0.10413 1.93126,-0.10413 2.82025,0 l -3e-5,0 z"
       style="fill:#000000;fill-opacity:1;fill-rule:evenodd;stroke:none;display:inline"
       id="2" />
    <path
       id="3"
       d="m 162.1875,72.03125 c -0.44036,-0.0043 -0.8705,0.0278 -1.25,0.0625 -0.7566,0.1041 -1.27852,0.27456 -1.75,0.65625 -0.47147,0.3817 -0.89642,0.92128 -1.9375,2.65625 -1.04109,1.73497 -2.67045,4.58545 -4.4375,7.8125 -1.76704,3.22703 -3.67728,6.76606 -5.40625,10.0625 -1.69332,3.33114 -3.20895,6.407499 -3.875,8.28125 -0.69926,1.87377 -0.57793,2.50731 -0.40625,3.0625 0.20245,0.52049 0.47293,0.97586 1.71875,1.21875 1.27659,0.20819 3.17834,0.1944 4.46875,0.125 1.67193,0.0241 2.02486,-0.71558 2.75,-2.0625 0.55338,-1.11038 1.41248,-2.95901 1.9375,-4 0.5226,-1.07567 0.67368,-1.36119 1.0625,-1.5 0.38641,-0.1735 1.45475,-0.1875 2.75,-0.1875 1.29282,-0.0347 3.25157,0 4.8125,0 1.56094,0 2.94462,-0.0035 3.84375,0.03125 0.89913,0.03469 1.99072,0.0696 2.40625,0.3125 0.41552,0.24288 0.65656,0.684659 1.15625,1.65625 0.49726,0.93688 1.24475,2.36793 1.71875,3.46875 0.45709,1.06155 0.9815,1.528 1.4375,1.875 0.48923,0.34699 0.70185,0.4931 1.96875,0.5625 1.26687,0.0694 3.07194,0.0138 4.125,-0.125 1.05307,-0.13879 1.23368,-0.39955 1.40625,-0.78125 0.17502,-0.34699 0.33869,-0.82408 -0.25,-2.59375 -0.6195,-1.73496 -2.04316,-4.80441 -3.71875,-8.34375 -1.6756,-3.53933 -3.57974,-7.62726 -5.28125,-11.0625 -1.70395,-3.46994 -3.23878,-6.27193 -4.21875,-7.9375 -0.97996,-1.66557 -1.41507,-2.153 -1.9375,-2.5 -0.48923,-0.34699 -1.03939,-0.55212 -1.84375,-0.65625 -0.38557,-0.05205 -0.80964,-0.08941 -1.25,-0.09375 z m 0.0937,10.5625 c 0.0984,-0.008 0.16854,0.05722 0.3125,0.1875 0.73678,0.66677 3.28232,6.20235 3.46875,7.5625 0.16139,1.17758 0.026,1.20749 -3.46875,1.1875 -1.62184,-0.0093 -3.26277,-0.07131 -3.625,-0.15625 -0.97389,-0.22836 -1.15376,-0.44033 -1.0625,-1.25 0.14156,-1.2559 3.00276,-6.54598 3.9375,-7.28125 0.20152,-0.158515 0.33909,-0.241959 0.4375,-0.25 z"
       style="fill:#000000;fill-opacity:1;fill-rule:evenodd;stroke:none;display:inline" />
    <path
       d="m 162.25917,65.464709 c 0.0664,0.2776 0.26569,0.4858 0.8635,0.58989 0.5646,0.13881 1.49452,0.13881 2.39123,0.10413 0.89671,0 1.7602,-0.0347 2.39123,-0.0347 0.63102,-0.0347 1.09597,-0.0694 1.52773,-0.13879 0.43174,-0.0694 0.89671,-0.1735 1.59415,-0.62458 0.69744,-0.4164 1.62736,-1.21449 2.78977,-2.08197 1.12918,-0.90218 1.85412,-1.90847 2.51836,-2.56775 0.66423,-0.65929 0.66423,-0.97158 0.43174,-1.24918 -0.19927,-0.27759 -0.66423,-0.55519 -1.36167,-0.65929 -0.69744,-0.13879 -1.09026,-0.13879 -2.18625,-0.13879 -1.06276,0 -2.25838,0 -3.08866,0.0347 -0.79708,0.0694 -1.19562,0.13879 -1.56094,0.34699 -0.33212,0.1735 -0.63102,0.4511 -1.62737,1.38797 -0.99634,0.97159 -2.72334,2.60245 -3.65326,3.57404 -0.92992,0.93688 -1.06277,1.21447 -1.02956,1.45737 l 0,-4e-5 z"
       style="fill:#000000;fill-opacity:1;fill-rule:evenodd;stroke:none;display:inline"
       id="5" />
    <path
       id="6"
       d="m 205.59375,71.78125 c -1.03786,0.02168 -1.96954,0.07294 -2.75,0.125 -2.36408,0.29137 -5.21284,0.60472 -5.84375,3.21875 -0.36533,1.56146 -0.21875,4.158518 -0.21875,7.59375 0,3.43524 0,7.766273 0,11.375 0,3.60872 -0.0118,6.50814 0.1875,8.3125 0.47369,2.33377 1.86523,3.63674 4.4375,3.8125 1.52773,0.1388 3.90362,0.18405 6.59375,0.21875 2.65693,0.0347 5.61663,0.0623 7.875,-0.25 2.25838,-0.3123 3.84151,-1.01807 4.9375,-2.09375 1.09598,-1.07567 1.72843,-2.54263 2.09375,-4 0.36531,-1.49207 0.48052,-2.95577 0.28125,-4.34375 -0.16606,-1.38799 -0.64434,-2.740273 -1.375,-3.78125 -0.76387,-1.07569 -1.83577,-1.854517 -2.5,-2.375 -0.69744,-0.52049 -1.03124,-0.78835 -1.03125,-1.03125 0,-0.2429 0.31434,-0.458622 0.8125,-0.875 0.49817,-0.4164 1.06238,-1.073472 1.59375,-1.90625 0.53138,-0.86748 1.02341,-1.934872 1.15625,-3.21875 0.16604,-1.31856 0.0255,-2.740468 -0.40625,-4.09375 -0.39853,-1.35328 -1.1267,-2.55278 -2.15625,-3.59375 -1.06277,-1.04099 -2.36281,-1.920459 -4.15625,-2.40625 l 0,-0.125 c -1.79342,-0.48576 -3.99161,-0.527803 -6.25,-0.5625 -1.11259,0 -2.24339,-0.02168 -3.28125,0 z m 0.875,6.25 c 0.35707,-0.0077 0.8024,0 1.40625,0 1.60498,-10e-7 2.85522,0.06761 3.375,0.21875 1.71426,0.498434 2.86331,2.00677 2.875,3.75 0.0136,2.032991 -1.01946,3.51056 -2.71875,3.875 -0.49859,0.106919 -2.04326,0.1875 -3.4375,0.1875 -2.15634,-3e-6 -2.59347,-0.04935 -2.90625,-0.3125 -0.30996,-0.260789 -0.40127,-0.59043 -0.5,-2.09375 -0.15882,-2.418218 0.0527,-4.70483 0.46875,-5.21875 0.2301,-0.284242 0.36628,-0.383214 1.4375,-0.40625 z m 2.15625,14.3125 c 0.81368,-0.01735 1.66095,-0.0034 2.375,0.03125 1.39488,0.0694 2.26543,0.26765 3.0625,0.71875 0.79708,0.416397 1.47842,1.07691 1.84375,1.875 0.36533,0.832783 0.36338,1.53877 0.0312,2.40625 -0.29891,0.902191 -0.89042,1.67046 -1.6875,2.15625 -0.79706,0.4858 -1.76137,0.71186 -3.15625,0.78125 -1.42808,0.0694 -3.24777,0.0382 -4.34375,-0.0312 -1.06275,-0.10413 -1.36127,-0.22586 -1.59375,-0.46875 -0.23247,-0.2082 -0.37108,-0.56291 -0.4375,-1.1875 -0.0664,-0.62458 -0.0625,-1.32002 -0.0625,-2.1875 -0.0332,-0.832789 -0.0332,-1.56291 0,-2.1875 0.0332,-0.589889 0.14645,-0.9724 0.3125,-1.25 0.16607,-0.277591 0.40205,-0.42716 1.53125,-0.53125 0.54799,-0.0694 1.31132,-0.107647 2.125,-0.125 z"
       style="fill:#000000;fill-opacity:1;fill-rule:evenodd;stroke:none;display:inline" />
    <path
       d="m 261.3135,73.223839 c 2.15875,0.97158 4.21787,2.56775 5.84523,4.75381 1.62736,2.18607 2.85618,4.92732 3.38758,7.98085 0.49816,3.05354 0.29889,6.41938 -0.46497,9.23003 -0.79708,2.81066 -2.12553,5.031421 -3.88575,6.801081 -1.76021,1.76967 -3.95216,3.08825 -6.90799,3.71283 -2.92261,0.62459 -6.64229,0.55519 -9.49849,-0.2082 -2.85618,-0.79808 -4.84888,-2.29015 -6.40982,-4.05982 -1.59415,-1.769661 -2.78976,-3.816931 -3.48721,-6.454081 -0.69744,-2.63716 -0.89671,-5.89889 -0.49817,-8.88304 0.36533,-2.98415 1.32846,-5.65599 2.72335,-7.80735 1.39488,-2.11666 3.22151,-3.67813 5.34705,-4.68442 2.15874,-1.00628 4.6496,-1.45737 7.04084,-1.52677 2.35802,-0.10413 4.64961,0.2082 6.80835,1.14508 l 0,0 z m -2.88939,6.69698 c 1.12918,0.52049 2.22517,1.42267 3.08867,2.67185 0.8635,1.21448 1.49451,2.74124 1.76021,4.47621 0.29889,1.70028 0.16604,3.60873 -0.23249,5.17021 -0.39854,1.59618 -1.12919,2.84535 -2.05912,3.85163 -0.92991,0.97158 -2.0591,1.70027 -3.62004,2.04726 -1.56094,0.34699 -3.52043,0.34699 -5.04816,-0.10413 -1.49451,-0.4511 -2.52407,-1.28388 -3.38757,-2.29016 -0.83029,-0.97158 -1.4613,-2.11666 -1.82662,-3.60873 -0.36534,-1.49208 -0.46497,-3.33114 -0.2657,-4.99671 0.19927,-1.66557 0.69744,-3.19235 1.42809,-4.37212 0.73065,-1.21448 1.69379,-2.08196 2.8562,-2.63715 1.12918,-0.55519 2.42444,-0.83278 3.68647,-0.86748 1.26204,-0.0347 2.45765,0.10413 3.62006,0.65928 l 0,4e-5 z"
       style="fill:#000000;fill-opacity:1;fill-rule:evenodd;stroke:none;display:inline"
       id="8" />
    <path
       d="m 310.78608,71.939959 c 1.36167,0.1735 1.727,0.52049 2.05911,0.93689 0.29891,0.41639 0.5646,0.93688 0.73065,2.84535 0.16606,1.90846 0.19927,5.2396 0.23249,8.43194 0.0332,3.19233 0.0332,6.24588 -0.0996,8.74423 -0.0996,2.49836 -0.36532,4.47622 -1.09597,6.2806 -0.76387,1.839061 -2.02591,3.469931 -3.38758,4.615011 -1.32845,1.14507 -2.75656,1.76967 -4.38392,2.15136 -1.62736,0.38169 -3.454,0.55519 -5.34705,0.48579 -1.92627,-0.0694 -3.88574,-0.347 -5.7788,-1.21448 -1.85985,-0.86748 -3.62006,-2.32486 -4.64961,-3.88633 -0.99635,-1.596161 -1.29525,-3.261731 -1.32847,-4.302721 -0.0664,-1.04098 0.16606,-1.42267 0.39855,-1.73496 0.26568,-0.34699 0.56459,-0.62459 1.4613,-0.76339 0.89671,-0.13879 2.35802,-0.13879 3.32115,-0.0347 0.92993,0.1388 1.32846,0.34699 1.66058,0.62458 0.29891,0.31229 0.53138,0.6593 0.8635,1.14508 0.94039,1.58681 2.32351,2.13915 4.0518,2.49835 2.2518,0.07738 4.25889,-0.40319 5.60308,-2.20044 0.63101,-1.14508 1.16563,-1.93005 1.26527,-4.2896 0.0996,-2.35956 0.0671,-5.82231 -0.0326,-8.16748 0.0538,-2.90976 -0.2716,-3.95291 -2.208,-4.27777 -1.9364,-0.32486 -3.12578,-0.17627 -5.69056,-0.1 -2.56478,0.07627 -5.74559,0.02383 -7.53901,-0.115 -1.82663,-0.10413 -2.32481,-0.28138 -2.69013,-0.69778 -0.33212,-0.38169 -0.49818,-0.90218 -0.59781,-1.76966 -0.0664,-0.86748 -0.0664,-2.08196 0.0332,-2.91474 0.0996,-0.83279 0.29891,-1.31858 0.59781,-1.63088 0.2989,-0.31229 0.66423,-0.52049 2.12554,-0.62458 1.4613,-0.1388 3.95216,-0.1735 6.50945,-0.2082 2.55729,0 5.14779,0.0347 7.63865,0.0347 2.49087,0 4.88209,-0.0347 6.27697,0.13879 l -3e-5,4e-5 z"
       style="fill:#000000;fill-opacity:1;fill-rule:evenodd;stroke:none;display:inline"
       id="10" />
  </g>
</svg>
