<svg xmlns="http://www.w3.org/2000/svg" viewBox="0 0 100 100"><path fill="#fff" d="M21 0C11 14 4 27 0 38v6C3 32 13 16 26 0h-5zm36 0C36 11 19 23 11 32 23 22 42 11 64 0h-7zm43 2C74 8 47 16 28 25c13-6 42-13 72-20V2zM73 24c-15 0-31 2-45 6-8 2-16 4-22 10-5 5-6 14-2 20 4 7 12 10 20 12 22 5 43 5 65 2 6-1 7-6 7-10V34c-1-6-4-8-8-9l-15-1zM60 34l14 1c4 0 3 4 0 4-13 0-25 0-37 5l-18 7c-3 1-8 1-5-3 3-5 9-7 14-9 10-3 21-5 32-5zM0 58v5c4 11 11 24 22 37h4C13 84 3 70 0 58zm11 12c8 9 23 19 43 30h6C40 90 23 80 11 70zm16 6c19 9 47 17 73 24v-4c-30-7-60-14-73-20z"/></svg>
